<svg width="95" height="30" viewBox="0 0 95 30" fill="none" xmlns="http://www.w3.org/2000/svg">
<g id="FedEx Logo" clip-path="url(#clip0_134_662)">
<g id="g15">
<g id="g17">
<path id="polygon19" d="M70.4307 28.2206L78.2797 19.5614L70.4307 10.9009H78.7122L82.5997 15.1076L86.3431 10.9009H94.3357L86.524 19.5256L94.4429 28.2206H86.1274L82.2752 23.9794L78.4593 28.2206H70.4307Z" fill="#FF6600"/>
<path id="polygon21" d="M70.4308 7.01853H61.5411V10.901H70.4308V16.7522H61.5411V22.1229H70.4308V28.2208H55.0073V0.9375H70.4308V7.01853Z" fill="#FF6600"/>
</g>
<path id="path23" d="M48.5012 0.9375V12.1031H48.4295C46.9891 10.4775 45.1894 9.91259 43.1013 9.91259C38.8238 9.91259 35.6017 12.7677 34.4707 16.5425C33.1808 12.3832 29.8544 9.83464 24.9218 9.83464C20.9161 9.83464 17.7529 11.6001 16.1022 14.4769V10.9014H7.82228V7.01933H16.858V0.9375H0.441406V28.2212H7.82228V16.7522H15.179C14.9597 17.5947 14.8426 18.4967 14.8426 19.4486C14.8426 25.1399 19.2707 29.1332 24.9218 29.1332C29.6739 29.1332 32.8056 26.9427 34.4621 22.9489H28.137C27.2813 24.1487 26.6323 24.505 24.9218 24.505C22.9384 24.505 21.2283 22.8059 21.2283 20.7917H34.1077C34.6663 25.3122 38.2526 29.2108 43.1741 29.2108C45.2971 29.2108 47.2408 28.1854 48.4295 26.4541H48.5012V28.2204H55.0075V0.9375H48.5012ZM21.4337 16.8337C21.8442 15.1008 23.213 13.9682 24.9218 13.9682C26.8029 13.9682 28.1022 15.0659 28.4439 16.8337C28.5879 16.8337 21.4337 16.8337 21.4337 16.8337ZM44.5527 24.0667C42.1543 24.0667 40.664 21.8725 40.664 19.5816C40.664 17.1327 41.9604 14.7778 44.5527 14.7778C47.2408 14.7778 48.3117 17.1327 48.3117 19.5816C48.3113 21.9039 47.1765 24.0667 44.5527 24.0667Z" fill="#652C8F"/>
</g>
</g>
<defs>
<clipPath id="clip0_134_662">
<rect width="94.1176" height="28.125" fill="white" transform="translate(0.441406 0.9375)"/>
</clipPath>
</defs>
</svg>
