<svg width="98" height="30" viewBox="0 0 98 30" fill="none" xmlns="http://www.w3.org/2000/svg">
<g id="Amazon Logo" clip-path="url(#clip0_134_651)">
<path id="path8" fill-rule="evenodd" clip-rule="evenodd" d="M60.6402 23.461C55.0068 27.725 46.8415 30.0001 39.8114 30.0001C29.9539 30.0001 21.0797 26.256 14.3661 20.0289C13.8386 19.5393 14.3112 18.8719 14.9442 19.2533C22.1895 23.5823 31.1481 26.1867 40.4021 26.1867C46.6432 26.1867 53.5088 24.8607 59.8216 22.109C60.7753 21.693 61.5728 22.7503 60.6402 23.461Z" fill="#FF9900"/>
<path id="path10" fill-rule="evenodd" clip-rule="evenodd" d="M62.9824 20.7093C62.2651 19.7646 58.2225 20.2629 56.408 20.4839C55.8552 20.5533 55.7708 20.0593 56.2688 19.7039C59.4885 17.3769 64.7716 18.0486 65.3877 18.8286C66.0038 19.6129 65.2274 25.0513 62.2018 27.647C61.7376 28.0457 61.2945 27.8333 61.5013 27.3047C62.1807 25.5627 63.704 21.6583 62.9824 20.7093Z" fill="#FF9900"/>
<path id="path12" fill-rule="evenodd" clip-rule="evenodd" d="M56.5349 3.27617V1.01414C56.5349 0.671807 56.7881 0.442139 57.0919 0.442139H66.9535C67.27 0.442139 67.5232 0.676141 67.5232 1.01414V2.95116C67.519 3.27617 67.2531 3.70084 66.7805 4.37251L61.6703 11.8649C63.5693 11.8173 65.5737 12.1076 67.2953 13.1043C67.6835 13.3296 67.789 13.6589 67.8186 13.9839V16.3976C67.8186 16.727 67.4641 17.1126 67.0928 16.9133C64.0587 15.2796 60.0288 15.102 56.6741 16.9306C56.3323 17.1213 55.9736 16.74 55.9736 16.4106V14.1183C55.9736 13.7499 55.9778 13.1216 56.3365 12.5626L62.2569 3.84384H57.1045C56.788 3.84384 56.5349 3.61417 56.5349 3.27617Z" fill="#1D1E25"/>
<path id="path14" fill-rule="evenodd" clip-rule="evenodd" d="M20.5611 17.3898H17.5608C17.2739 17.3681 17.046 17.1471 17.0249 16.8654V1.05296C17.0249 0.73662 17.2823 0.485282 17.603 0.485282H20.4007C20.6919 0.498274 20.924 0.727951 20.9451 1.01395V3.08098H20.9999C21.73 1.08329 23.1014 0.151611 24.9497 0.151611C26.8275 0.151611 28.0006 1.08329 28.8445 3.08098C29.5703 1.08329 31.2203 0.151611 32.9884 0.151611C34.2459 0.151611 35.6215 0.684617 36.4612 1.88063C37.4107 3.21097 37.2166 5.14366 37.2166 6.83801L37.2124 16.8178C37.2124 17.1341 36.955 17.3898 36.6343 17.3898H33.6382C33.3386 17.3681 33.0981 17.1211 33.0981 16.8178V8.43703C33.0981 7.76969 33.1571 6.10567 33.0137 5.473C32.79 4.41132 32.1191 4.11232 31.2498 4.11232C30.524 4.11232 29.7644 4.61066 29.4564 5.408C29.1484 6.20534 29.1779 7.54002 29.1779 8.43703V16.8178C29.1779 17.1341 28.9205 17.3898 28.5998 17.3898H25.6037C25.2999 17.3681 25.0636 17.1211 25.0636 16.8178L25.0594 8.43703C25.0594 6.67334 25.3421 4.07765 23.2111 4.07765C21.0548 4.07765 21.1392 6.60834 21.1392 8.43703V16.8178C21.1392 17.1341 20.8818 17.3898 20.5611 17.3898" fill="#1D1E25"/>
<path id="path16" fill-rule="evenodd" clip-rule="evenodd" d="M76.0129 0.151611C80.4648 0.151611 82.8743 4.07765 82.8743 9.06971C82.8743 13.8928 80.2116 17.7191 76.0129 17.7191C71.6412 17.7191 69.2612 13.7931 69.2612 8.9007C69.2612 3.97798 71.6707 0.151611 76.0129 0.151611ZM76.0382 3.37998C73.827 3.37998 73.6878 6.47401 73.6878 8.40236C73.6878 10.3351 73.6583 14.4604 76.0129 14.4604C78.338 14.4604 78.4477 11.1324 78.4477 9.10437C78.4477 7.76969 78.3929 6.17501 78.0004 4.90966C77.6628 3.80899 76.9919 3.37998 76.0382 3.37998Z" fill="#1D1E25"/>
<path id="path18" fill-rule="evenodd" clip-rule="evenodd" d="M88.6472 17.3898H85.6596C85.36 17.3681 85.1194 17.1211 85.1194 16.8178L85.1152 1.00095C85.1406 0.710617 85.3895 0.485282 85.6933 0.485282H88.4742C88.7358 0.498274 88.951 0.680284 89.0101 0.927287V3.34531H89.065C89.9047 1.18296 91.082 0.151611 93.1539 0.151611C94.5 0.151611 95.8124 0.64995 96.6563 2.01496C97.4412 3.28031 97.4412 5.408 97.4412 6.93768V16.8914C97.4075 17.1688 97.1585 17.3898 96.8631 17.3898H93.8544C93.5801 17.3681 93.3523 17.1601 93.3227 16.8914V8.30269C93.3227 6.57368 93.5168 4.04298 91.4449 4.04298C90.7149 4.04298 90.0439 4.54566 89.7106 5.30833C89.2886 6.27467 89.2337 7.23668 89.2337 8.30269V16.8178C89.2295 17.1341 88.9679 17.3898 88.6472 17.3898" fill="#1D1E25"/>
<path id="path28" fill-rule="evenodd" clip-rule="evenodd" d="M48.673 9.83677C48.673 11.0371 48.7025 12.0381 48.1117 13.1041C47.6349 13.9708 46.8754 14.5038 46.0356 14.5038C44.8836 14.5038 44.2084 13.6025 44.2084 12.2721C44.2084 9.6461 46.4998 9.16943 48.673 9.16943V9.83677ZM51.6986 17.3465C51.5002 17.5285 51.2133 17.5415 50.9896 17.4202C49.9938 16.5708 49.8123 16.1765 49.268 15.3662C47.6223 17.0908 46.4534 17.6065 44.3224 17.6065C41.7947 17.6065 39.8325 16.0075 39.8325 12.8051C39.8325 10.3048 41.1491 8.60176 43.0311 7.76975C44.66 7.03307 46.9344 6.90307 48.673 6.69941V6.30073C48.673 5.56839 48.7278 4.70171 48.3059 4.06905C47.943 3.50137 47.2425 3.26737 46.6222 3.26737C45.4786 3.26737 44.4616 3.86971 44.2127 5.11772C44.162 5.39506 43.9637 5.66806 43.6894 5.68106L40.782 5.36039C40.5372 5.30406 40.2629 5.10039 40.3347 4.71472C41.0014 1.09201 44.1916 0 47.0441 0C48.5042 0 50.4115 0.398672 51.5635 1.53402C53.0236 2.9337 52.8843 4.80138 52.8843 6.83374V11.6351C52.8843 13.0781 53.4667 13.7108 54.0152 14.4908C54.2051 14.7682 54.2473 15.1018 54.0026 15.3098C53.3907 15.8342 52.302 16.8092 51.7028 17.3552L51.6986 17.3465" fill="#1D1E25"/>
<path id="path30" fill-rule="evenodd" clip-rule="evenodd" d="M9.34046 9.83701C9.34046 11.0374 9.36999 12.0384 8.77922 13.1044C8.30238 13.9711 7.54704 14.5041 6.70309 14.5041C5.55108 14.5041 4.88014 13.6027 4.88014 12.2724C4.88014 9.64634 7.17148 9.16967 9.34046 9.16967V9.83701ZM12.366 17.3468C12.1677 17.5288 11.8808 17.5418 11.6571 17.4204C10.6612 16.5711 10.484 16.1767 9.93544 15.3664C8.28973 17.0911 7.12507 17.6068 4.98985 17.6068C2.46642 17.6068 0.5 16.0077 0.5 12.8054C0.5 10.305 1.82079 8.602 3.6986 7.76999C5.32744 7.03332 7.6019 6.90332 9.34046 6.69965V6.30098C9.34046 5.56863 9.39531 4.70196 8.97755 4.06929C8.61043 3.50161 7.90995 3.26761 7.29386 3.26761C6.1503 3.26761 5.12911 3.86995 4.88014 5.11796C4.8295 5.3953 4.63117 5.6683 4.36111 5.6813L1.44945 5.36063C1.2047 5.3043 0.934637 5.10063 1.00215 4.71496C1.6731 1.09226 4.85904 0.000244141 7.71162 0.000244141C9.17166 0.000244141 11.079 0.398916 12.231 1.53426C13.6911 2.93394 13.5518 4.80163 13.5518 6.83398V11.6354C13.5518 13.0784 14.1341 13.7111 14.6827 14.4911C14.8768 14.7684 14.919 15.1021 14.6743 15.3101C14.0624 15.8344 12.9737 16.8094 12.3745 17.3554L12.366 17.3467" fill="#1D1E25"/>
</g>
<defs>
<clipPath id="clip0_134_651">
<rect width="96.9412" height="30" fill="white" transform="translate(0.5)"/>
</clipPath>
</defs>
</svg>
