<svg width="90" height="30" viewBox="0 0 90 30" fill="none" xmlns="http://www.w3.org/2000/svg">
<g id="Google Logo" clip-path="url(#clip0_134_679)">
<path id="Vector" d="M38.3141 15.3847C38.3141 19.5488 35.0302 22.6173 31 22.6173C26.9699 22.6173 23.686 19.5488 23.686 15.3847C23.686 11.1912 26.9699 8.1521 31 8.1521C35.0302 8.1521 38.3141 11.1912 38.3141 15.3847ZM35.1123 15.3847C35.1123 12.7825 33.209 11.0021 31 11.0021C28.7911 11.0021 26.8878 12.7825 26.8878 15.3847C26.8878 17.9608 28.7911 19.7673 31 19.7673C33.209 19.7673 35.1123 17.9575 35.1123 15.3847Z" fill="#EA4335"/>
<path id="Vector_2" d="M54.0924 15.3847C54.0924 19.5488 50.8085 22.6173 46.7784 22.6173C42.7483 22.6173 39.4644 19.5488 39.4644 15.3847C39.4644 11.1945 42.7483 8.1521 46.7784 8.1521C50.8085 8.1521 54.0924 11.1912 54.0924 15.3847ZM50.8906 15.3847C50.8906 12.7825 48.9874 11.0021 46.7784 11.0021C44.5694 11.0021 42.6661 12.7825 42.6661 15.3847C42.6661 17.9608 44.5694 19.7673 46.7784 19.7673C48.9874 19.7673 50.8906 17.9575 50.8906 15.3847Z" fill="#FBBC05"/>
<path id="Vector_3" d="M69.2135 8.58906V21.5738C69.2135 26.9151 66.0381 29.0967 62.2841 29.0967C58.7503 29.0967 56.6235 26.7521 55.8214 24.8347L58.609 23.6836C59.1054 24.8608 60.3216 26.2499 62.2808 26.2499C64.6837 26.2499 66.1728 24.7793 66.1728 22.0108V20.9706H66.0611C65.3445 21.8478 63.9638 22.6141 62.2216 22.6141C58.5761 22.6141 55.2363 19.4641 55.2363 15.4108C55.2363 11.3282 58.5761 8.1521 62.2216 8.1521C63.9606 8.1521 65.3412 8.9184 66.0611 9.76949H66.1728V8.59232H69.2135V8.58906ZM66.3997 15.4108C66.3997 12.8641 64.687 11.0021 62.5076 11.0021C60.2986 11.0021 58.4479 12.8641 58.4479 15.4108C58.4479 17.9314 60.2986 19.7673 62.5076 19.7673C64.687 19.7673 66.3997 17.9314 66.3997 15.4108Z" fill="#4285F4"/>
<path id="Vector_4" d="M74.2263 0.978271V22.1739H71.1035V0.978271H74.2263Z" fill="#34A853"/>
<path id="Vector_5" d="M86.396 17.7652L88.8812 19.4087C88.0791 20.5859 86.1462 22.6141 82.8064 22.6141C78.6645 22.6141 75.5713 19.4381 75.5713 15.3815C75.5713 11.0804 78.6908 8.14893 82.4481 8.14893C86.2317 8.14893 88.0824 11.1359 88.6872 12.75L89.0192 13.5718L79.2727 17.5761C80.0189 19.0272 81.1793 19.7674 82.8064 19.7674C84.4369 19.7674 85.5677 18.9718 86.396 17.7652ZM78.7467 15.1631L85.262 12.4794C84.9036 11.5761 83.8254 10.9468 82.5566 10.9468C80.9294 10.9468 78.6645 12.3718 78.7467 15.1631Z" fill="#EA4335"/>
<path id="Vector_6" d="M11.8655 13.5033V10.4348H22.2892C22.3911 10.9696 22.4437 11.6022 22.4437 12.287C22.4437 14.5892 21.8093 17.4359 19.7646 19.4642C17.7759 21.5185 15.2349 22.6142 11.8688 22.6142C5.62967 22.6142 0.383301 17.5729 0.383301 11.3838C0.383301 5.19462 5.62967 0.15332 11.8688 0.15332C15.3203 0.15332 17.7792 1.4968 19.6266 3.24789L17.4439 5.4131C16.1191 4.18049 14.3243 3.2218 11.8655 3.2218C7.30943 3.2218 3.7461 6.86419 3.7461 11.3838C3.7461 15.9033 7.30943 19.5457 11.8655 19.5457C14.8207 19.5457 16.5037 18.3685 17.5819 17.299C18.4563 16.4316 19.0316 15.1925 19.2584 13.5001L11.8655 13.5033Z" fill="#4285F4"/>
</g>
<defs>
<clipPath id="clip0_134_679">
<rect width="89.4118" height="30" fill="white" transform="translate(0.264648)"/>
</clipPath>
</defs>
</svg>
