<svg width="115" height="26" viewBox="0 0 115 26" fill="none" xmlns="http://www.w3.org/2000/svg">
<g id="Microsoft Logo" clip-path="url(#clip0_134_670)">
<path id="Vector" d="M40.619 14.8516L39.9346 16.779H39.8776C39.7635 16.3444 39.5544 15.683 39.2122 14.8894L35.5432 5.72518H31.9502V20.3313H34.3265V11.3182C34.3265 10.7513 34.3265 10.1089 34.3075 9.31529C34.2885 8.91849 34.2505 8.61617 34.2315 8.38942H34.2885C34.4025 8.95628 34.5356 9.37198 34.6307 9.63651L39.0411 20.2935H40.714L45.0865 9.54204C45.1815 9.2964 45.2766 8.80512 45.3716 8.38942H45.4287C45.3716 9.46646 45.3336 10.4301 45.3146 11.0159V20.2746H47.843V5.68739H44.3831L40.619 14.8516ZM50.2383 9.80657H52.7097V20.2746H50.2383V9.80657ZM51.493 5.38506C51.0748 5.38506 50.7326 5.53622 50.4474 5.80076C50.1623 6.06529 50.0102 6.40541 50.0102 6.82111C50.0102 7.21791 50.1623 7.55803 50.4474 7.82256C50.7326 8.0871 51.0748 8.21936 51.493 8.21936C51.9112 8.21936 52.2724 8.0682 52.5386 7.82256C52.8237 7.55803 52.9758 7.21791 52.9758 6.82111C52.9758 6.4243 52.8237 6.08419 52.5386 5.80076C52.2914 5.53622 51.9302 5.38506 51.493 5.38506ZM61.4735 9.7121C61.0173 9.61762 60.542 9.56093 60.0858 9.56093C58.9641 9.56093 57.9376 9.80657 57.0821 10.2979C56.2266 10.7891 55.5422 11.4694 55.105 12.3197C54.6488 13.1888 54.4206 14.1903 54.4206 15.3429C54.4206 16.3444 54.6487 17.2324 55.086 18.0449C55.5232 18.8385 56.1316 19.481 56.949 19.9156C57.7285 20.3502 58.641 20.5769 59.6675 20.5769C60.8462 20.5769 61.8537 20.3313 62.6522 19.8778L62.6712 19.8589V17.5915L62.5761 17.667C62.2149 17.9316 61.7967 18.1583 61.3785 18.2906C60.9412 18.4417 60.542 18.5173 60.1998 18.5173C59.2113 18.5173 58.4318 18.2339 57.8805 17.6104C57.3102 17.0057 57.0251 16.1743 57.0251 15.1351C57.0251 14.058 57.3102 13.2077 57.8996 12.5842C58.4889 11.9606 59.2683 11.6394 60.2188 11.6394C61.0173 11.6394 61.8347 11.904 62.5761 12.433L62.6712 12.5086V10.1089L62.6522 10.09C62.329 9.95774 61.9678 9.80657 61.4735 9.7121ZM69.629 9.63651C69.0207 9.63651 68.4504 9.82547 67.9561 10.2223C67.5379 10.5624 67.2527 11.0537 67.0056 11.6394H66.9866V9.80657H64.5152V20.2746H66.9866V14.9272C66.9866 14.0202 67.1767 13.2644 67.5949 12.7165C68.0131 12.1496 68.5454 11.8662 69.1918 11.8662C69.4199 11.8662 69.648 11.9229 69.9332 11.9606C70.1994 12.0362 70.3895 12.1118 70.5225 12.2063L70.6176 12.2819V9.82547L70.5606 9.80657C70.3895 9.6932 70.0473 9.63651 69.629 9.63651ZM76.3588 9.57983C74.6288 9.57983 73.241 10.09 72.2715 11.0915C71.283 12.0929 70.8077 13.4723 70.8077 15.2106C70.8077 16.8356 71.302 18.1583 72.2525 19.122C73.203 20.0667 74.4957 20.558 76.1116 20.558C77.8036 20.558 79.1533 20.0479 80.1228 19.0275C81.1114 18.0072 81.5867 16.6467 81.5867 14.965C81.5867 13.3022 81.1304 11.9795 80.1989 11.0159C79.3054 10.0522 77.9937 9.57983 76.3588 9.57983ZM78.3359 17.6292C77.8796 18.215 77.1572 18.4984 76.2637 18.4984C75.3702 18.4984 74.6478 18.215 74.1345 17.5915C73.6212 17.0057 73.3741 16.1554 73.3741 15.0784C73.3741 13.9635 73.6403 13.1133 74.1345 12.5086C74.6478 11.904 75.3512 11.6016 76.2447 11.6016C77.1192 11.6016 77.8036 11.8851 78.2978 12.4708C78.7921 13.0566 79.0583 13.9069 79.0583 15.0217C79.0202 16.1554 78.8111 17.0435 78.3359 17.6292ZM87.0997 14.1525C86.3203 13.8313 85.826 13.5856 85.5979 13.3778C85.4078 13.1888 85.3127 12.9243 85.3127 12.5842C85.3127 12.3008 85.4268 12.0173 85.7119 11.8284C85.9971 11.6394 86.3203 11.5449 86.7955 11.5449C87.2138 11.5449 87.651 11.6205 88.0692 11.7339C88.4875 11.8473 88.8677 12.0173 89.1719 12.2441L89.2669 12.3197V10.0144L89.2099 9.99553C88.9247 9.88215 88.5445 9.76878 88.0882 9.67431C87.632 9.59872 87.2138 9.56093 86.8716 9.56093C85.6929 9.56093 84.7234 9.84436 83.963 10.4679C83.2025 11.0537 82.8413 11.8473 82.8413 12.7731C82.8413 13.2644 82.9174 13.699 83.0885 14.058C83.2596 14.417 83.5067 14.7572 83.8489 15.0406C84.1911 15.3051 84.6854 15.6074 85.3697 15.8909C85.9401 16.1365 86.3773 16.3255 86.6434 16.4766C86.9096 16.6278 87.0807 16.7979 87.2138 16.9301C87.3088 17.0813 87.3659 17.2702 87.3659 17.5159C87.3659 18.215 86.8336 18.5551 85.75 18.5551C85.3317 18.5551 84.8945 18.4795 84.3812 18.3095C83.8679 18.1394 83.3927 17.8938 82.9934 17.6104L82.8984 17.5348V19.9345L82.9554 19.9534C83.3166 20.1234 83.7539 20.2368 84.2861 20.3691C84.8184 20.4635 85.2937 20.5391 85.7119 20.5391C86.9856 20.5391 88.0312 20.2557 88.7726 19.6322C89.5331 19.0275 89.9323 18.2528 89.9323 17.2513C89.9323 16.5522 89.7422 15.9287 89.3239 15.4563C88.7726 15.0028 88.0883 14.5304 87.0997 14.1525ZM96.4529 9.57983C94.7229 9.57983 93.3352 10.09 92.3656 11.0915C91.3961 12.0929 90.9018 13.4723 90.9018 15.2106C90.9018 16.8356 91.3961 18.1583 92.3466 19.122C93.2971 20.0667 94.5898 20.558 96.2057 20.558C97.8977 20.558 99.2474 20.0479 100.217 19.0275C101.206 18.0072 101.681 16.6467 101.681 14.965C101.681 13.3022 101.225 11.9795 100.293 11.0159C99.3995 10.0522 98.0878 9.57983 96.4529 9.57983ZM98.411 17.6292C97.9547 18.215 97.2323 18.4984 96.3388 18.4984C95.4263 18.4984 94.7229 18.215 94.2096 17.5915C93.6964 17.0057 93.4492 16.1554 93.4492 15.0784C93.4492 13.9635 93.7154 13.1133 94.2096 12.5086C94.7229 11.904 95.4263 11.6016 96.3198 11.6016C97.1753 11.6016 97.8787 11.8851 98.3729 12.4708C98.8672 13.0566 99.1334 13.9069 99.1334 15.0217C99.1334 16.1554 98.8862 17.0435 98.411 17.6292ZM114.893 11.8284V9.80657H112.403V6.70774L112.327 6.72663L109.969 7.42576L109.912 7.44465V9.80657H106.186V8.4839C106.186 7.87925 106.338 7.40686 106.604 7.10454C106.871 6.80221 107.27 6.65105 107.764 6.65105C108.106 6.65105 108.468 6.72663 108.867 6.89669L108.962 6.95337V4.8182L108.905 4.79931C108.563 4.68593 108.106 4.61035 107.517 4.61035C106.776 4.61035 106.129 4.78041 105.54 5.06384C104.951 5.38506 104.513 5.81965 104.19 6.40541C103.867 6.97227 103.696 7.61471 103.696 8.35163V9.80657H101.966V11.8095H103.696V20.2746H106.186V11.8284H109.912V17.2136C109.912 19.4243 110.958 20.5391 113.049 20.5391C113.391 20.5391 113.752 20.4824 114.095 20.4258C114.456 20.3502 114.722 20.2557 114.874 20.1801L114.893 20.1612V18.1394L114.798 18.215C114.646 18.3095 114.513 18.3851 114.285 18.4417C114.095 18.4984 113.924 18.5173 113.79 18.5173C113.296 18.5173 112.954 18.404 112.707 18.1205C112.479 17.856 112.365 17.4214 112.365 16.779V11.8284H114.893Z" fill="#737373"/>
<path id="Vector_2" d="M0.0883789 0.8125H11.7418V12.3953H0.0883789V0.8125Z" fill="#F25022"/>
<path id="Vector_3" d="M12.9585 0.8125H24.6119V12.3953H12.9585V0.8125Z" fill="#7FBA00"/>
<path id="Vector_4" d="M0.0883789 13.6047H11.7418V25.1876H0.0883789V13.6047Z" fill="#00A4EF"/>
<path id="Vector_5" d="M12.9585 13.6047H24.6119V25.1876H12.9585V13.6047Z" fill="#FFB900"/>
</g>
<defs>
<clipPath id="clip0_134_670">
<rect width="114.824" height="24.375" fill="white" transform="translate(0.0883789 0.8125)"/>
</clipPath>
</defs>
</svg>
