<svg width="93" height="32" viewBox="0 0 93 32" fill="none" xmlns="http://www.w3.org/2000/svg">
<g id="OLA logo" clip-path="url(#clip0_134_688)">
<g id="Group">
<path id="Vector" fill-rule="evenodd" clip-rule="evenodd" d="M81.6776 14.9133L75.8073 25.0705L70.7988 25.0904L81.6776 5.97236L92.5157 25.0904H87.4279L81.6776 14.9123V14.9133ZM65.8707 20.6687H71.4802L68.8757 25.0904H61.5644L61.5842 19.7065V6.0899H65.8915L65.8716 20.6687H65.8707ZM50.4862 6.09089C55.8349 6.11082 60.162 10.3542 60.1421 15.5996C60.1223 20.8261 55.7952 25.0705 50.4455 25.0705C45.1167 25.0505 40.7896 20.8072 40.7896 15.5608C40.8094 10.3343 45.1366 6.09089 50.4862 6.09089ZM50.4664 20.6498C53.3306 20.6498 55.6335 18.3897 55.6335 15.5996C55.6544 12.8105 53.3306 10.5305 50.4862 10.5305C47.6408 10.5106 45.3171 12.7906 45.3171 15.5807C45.2972 18.3697 47.621 20.6498 50.4654 20.6498H50.4664ZM32.8167 14.0905C32.7572 13.3036 32.5559 12.2627 32.2554 11.2616C31.637 9.19385 30.562 7.29289 29.1104 5.70043C28.3487 4.87566 27.4879 4.10867 26.2045 3.20521C25.2262 2.72031 24.2643 2.20272 23.3204 1.6533C22.6996 1.29968 21.9577 0.866382 20.9769 0.552613C19.8138 0.276896 18.625 0.125642 17.4303 0.101382C16.2699 0.0615386 15.1065 0.161148 13.9848 0.376304C12.8026 0.572535 11.8208 0.886304 10.5186 1.20107C7.57299 2.47806 5.28992 4.40351 3.3262 6.95849C-3.525 16.5658 2.66568 30.025 14.1048 31.6158C15.9882 31.8718 17.8716 31.7732 19.6538 31.3608L20.9164 31.0271C20.956 31.0072 21.0165 30.9873 21.0562 30.9873L22.4992 30.4374C22.5786 30.3976 22.6391 30.3777 22.7194 30.3388L23.3204 30.0639C24.4736 29.4923 25.5561 28.7869 26.5457 27.9621C25.6449 28.7842 24.6652 29.5146 23.6209 30.1426L23.6804 30.1824C23.8818 30.1227 24.0613 30.0639 24.2616 30.025C24.2616 30.025 24.2616 30.3388 24.222 30.28C23.9016 30.5161 24.4025 30.3 25.0431 29.9653C25.6848 29.6316 26.3057 29.2182 26.866 28.747C27.6882 28.0597 28.4092 27.3127 29.4308 26.0954C30.4721 24.2676 31.7753 22.6759 32.3763 20.5343C32.5767 19.9645 32.7562 19.2971 32.8772 18.6088C32.9962 17.9215 33.0775 17.2143 33.0775 16.4871C33.0577 15.76 32.9774 15.0129 32.8167 14.0905ZM17.9916 30.2412C21.4975 29.6903 24.4421 27.746 26.8462 25.0934C27.5077 24.1302 28.0284 23.2456 28.6691 22.2834C29.4704 20.3181 29.4109 18.57 29.6708 17.3328C29.9921 15.0916 29.2304 13.2847 28.5897 11.3592C27.6079 9.11902 26.3057 7.44957 24.0216 6.15265C18.2515 2.57668 10.3986 3.57775 6.65262 8.92279C6.63279 8.92279 6.53163 9.06025 6.33129 9.33517C6.59212 8.23549 7.25364 7.58703 7.91416 6.9575C9.87788 5.34681 12.1619 4.06882 14.7664 3.44128C17.7119 3.12652 20.6357 3.44128 23.2599 4.71828C27.1874 6.9575 29.7918 10.4757 30.4523 14.6394V18.4913C29.6311 24.7985 24.222 29.5927 17.9916 30.2412ZM32.3962 15.8974C32.2554 6.66365 23.1003 0.435074 14.1852 1.69314C11.5808 2.3406 8.73536 3.63752 6.71213 5.44543C5.73027 6.09289 5.27009 7.29218 4.28823 8.25441C0.360788 14.0118 1.04313 21.3799 5.93061 25.8604C6.55754 26.4829 7.22697 27.0607 7.934 27.5896C3.84788 25.1322 2.00416 21.4178 1.36347 16.9005C1.36347 15.2888 1.68382 13.6971 2.024 12.0864C4.30905 5.03205 11.5004 -0.0958442 19.3345 1.20107C20.6367 1.51584 21.9389 1.84953 23.2619 2.16429C24.9043 2.81175 26.5268 3.77498 27.8291 5.05296C29.1313 6.32896 30.1131 7.94064 31.095 9.5314C31.7555 10.8094 32.0768 12.4201 32.3972 13.6971C32.4567 14.4242 32.4567 15.1713 32.3972 15.8984L32.3962 15.8974Z" fill="#1D1E25"/>
<path id="Vector_2" fill-rule="evenodd" clip-rule="evenodd" d="M24.2627 16.0358C24.2627 20.0052 20.9373 23.2276 16.8303 23.2276C12.7244 23.2276 9.39795 20.0052 9.39795 16.0358C9.39795 12.0673 12.7234 8.84497 16.8303 8.84497C20.9373 8.84497 24.2627 12.0673 24.2627 16.0368V16.0358Z" fill="white"/>
<path id="Vector_3" fill-rule="evenodd" clip-rule="evenodd" d="M24.3031 14.8176C24.2029 14.2678 24.0423 13.8355 23.8826 13.2268C23.2409 11.8901 22.2997 10.8492 21.057 9.96464C16.4096 6.88074 10.0185 9.8471 9.33818 15.1135C9.07834 17.1963 9.8192 19.2004 11.1412 20.7334C10.7406 20.32 10.3002 19.8887 9.9997 19.3967L9.96003 19.4365C9.9997 19.554 10.1604 19.6327 10.2 19.7503C10.2 19.7503 10.0394 19.7503 10.08 19.7303C9.96003 19.5939 10.0602 19.81 10.2397 20.1039C10.4004 20.3987 10.6007 20.6746 10.8407 20.9296C11.1819 21.3032 11.5419 21.6369 12.1429 22.0891C13.0256 22.5403 13.8061 23.13 14.8277 23.4049C15.1083 23.4846 15.4287 23.5623 15.75 23.6211C16.0902 23.6809 16.4105 23.7008 16.7716 23.7008C17.1117 23.7008 17.4727 23.6609 17.9131 23.5812C18.3672 23.5275 18.816 23.4359 19.255 23.3073C20.2354 23.0109 21.1386 22.5007 21.9 21.8132C22.2809 21.4606 22.8224 21.0083 23.2419 20.4186C23.5831 19.7513 23.6228 19.4166 23.7834 19.1217C23.9431 18.8269 24.1434 18.4932 24.2843 18.041C24.3991 17.5045 24.4661 16.9588 24.4846 16.4104C24.4648 15.8605 24.4251 15.3296 24.3041 14.8186L24.3031 14.8176ZM19.5346 11.1639C20.216 11.5564 20.3162 11.6152 19.9552 11.3602C20.4768 11.4777 20.7972 11.7726 21.1175 12.0674C21.899 12.9519 22.5397 13.9928 22.8601 15.1911C23.0406 16.5468 22.8997 17.9025 22.3196 19.1018C21.2782 20.9286 19.615 22.1469 17.6314 22.4806C17.4113 22.4806 17.1712 22.4806 16.9501 22.5005C17.5114 22.4019 17.8724 22.0483 18.894 21.6747C19.9948 21.2823 21.2375 19.4554 21.8395 18.3936C23.6019 15.5049 21.5182 12.8334 19.5346 11.1639ZM15.7689 22.5194C12.7241 22.2056 10.3795 19.7104 10.0592 16.8218C10.3389 18.4334 11.3009 19.6706 12.6031 20.7713C13.0643 21.0661 13.7446 21.4785 14.2058 21.7733C14.9873 22.0682 15.4475 22.3829 16.2092 22.5204H15.7689V22.5194ZM23.9619 17.274C23.8231 17.8836 23.6823 18.4723 23.5414 19.0819C23.2409 19.829 22.8006 20.595 22.1996 21.2036C21.5985 21.8132 20.8369 22.2843 20.0762 22.7366C19.4751 23.0503 18.7135 23.2077 18.0926 23.3641C17.7316 23.4039 17.3111 23.2466 16.9501 23.2276C21.3982 23.1091 24.443 18.9644 23.7824 14.8575C23.4611 13.6592 22.8204 12.6172 22.0389 11.5763C21.7185 11.1241 21.0967 10.8492 20.6365 10.3969C17.8516 8.6488 14.1662 9.00242 12.0626 11.3014C11.7676 11.6035 11.493 11.925 11.2404 12.2636C12.3631 10.6131 14.1662 9.45464 16.3292 9.11996C17.0909 9.10003 17.8724 9.23849 18.6331 9.37595C21.9992 10.3969 24.5035 13.6592 23.9619 17.275V17.274Z" fill="#D7DF23"/>
</g>
</g>
<defs>
<clipPath id="clip0_134_688">
<rect width="92.2353" height="31.875" fill="white" transform="translate(0.382324 0.0625)"/>
</clipPath>
</defs>
</svg>
