<svg width="81" height="30" viewBox="0 0 81 30" fill="none" xmlns="http://www.w3.org/2000/svg">
<g id="OYO Logo" clip-path="url(#clip0_134_700)">
<path id="Vector" d="M65.972 28.725C73.4811 28.725 79.591 22.5405 79.591 14.94C79.591 7.33503 73.4811 1.15503 65.972 1.15503C58.4614 1.15503 52.353 7.33503 52.353 14.94C52.353 22.5405 58.4614 28.725 65.972 28.725ZM65.972 10.0245C68.648 10.0245 70.8274 12.2295 70.8274 14.9385C70.8274 17.6475 68.6466 19.8495 65.9705 19.8495C63.2929 19.8495 61.1166 17.6475 61.1166 14.937C61.1166 12.225 63.2944 10.0215 65.9705 10.0215L65.972 10.0245ZM14.5897 28.725C22.0988 28.725 28.2087 22.5405 28.2087 14.94C28.2087 7.33503 22.0988 1.15503 14.5897 1.15503C7.0821 1.15503 0.970703 7.33503 0.970703 14.94C0.970703 22.5405 7.0821 28.725 14.5897 28.725ZM14.5897 10.0245C17.2673 10.0245 19.4451 12.2295 19.4451 14.9385C19.4451 17.6475 17.2673 19.8495 14.5897 19.8495C11.9136 19.8495 9.73728 17.6475 9.73728 14.937C9.73728 12.225 11.9151 10.0215 14.5897 10.0215V10.0245ZM40.2734 9.71403L36.0922 1.33503H26.3023L35.4463 19.665V28.2945H45.1019V19.665L54.2459 1.33503H44.4516L40.2749 9.71403H40.2734Z" fill="#EE2E24"/>
</g>
<defs>
<clipPath id="clip0_134_700">
<rect width="79.0588" height="30" fill="white" transform="translate(0.970703)"/>
</clipPath>
</defs>
</svg>
