<svg width="113" height="28" viewBox="0 0 113 28" fill="none" xmlns="http://www.w3.org/2000/svg">
<g id="Walmart Logo" clip-path="url(#clip0_134_695)">
<path id="Shape" d="M40.222 10.2118V11.6994H40.2679C40.8073 10.903 41.7029 9.96495 43.6881 9.96495C45.2324 9.96495 46.4172 10.745 46.9249 11.9232H46.9708C47.4045 11.3275 47.9016 10.8766 48.4587 10.5574C49.1181 10.1789 49.8515 9.96166 50.7753 9.96166C52.8662 9.96166 54.7174 11.3111 54.7174 14.7142V21.1684H51.5299V15.1651C51.5299 13.4405 50.9022 12.4433 49.5976 12.4433C48.6421 12.4433 47.9475 13.0423 47.683 13.7795C47.5913 14.0329 47.549 14.3785 47.549 14.6681V21.1717H44.3615V14.9216C44.3615 13.457 43.7586 12.44 42.4716 12.44C41.442 12.44 40.7968 13.197 40.5323 13.8453C40.4195 14.1218 40.3842 14.441 40.3842 14.7406V21.1684H37.1932V10.2118H40.222ZM71.1696 10.2118V12.2787H71.2578C71.8431 10.6989 73.2323 9.96495 74.4523 9.96495C74.7591 9.96495 74.9283 9.98799 75.1751 10.0341V12.904C74.8825 12.8645 74.611 12.825 74.2302 12.825C72.848 12.825 71.8854 13.5754 71.6421 14.7504C71.5892 14.994 71.5716 15.2573 71.5716 15.5601V21.1717H68.2995V10.2118H71.1696ZM79.6179 6.58154V10.0308H82.3822V12.8218H79.6179V16.9391C79.6179 18.2721 79.981 18.9171 81.06 18.9171C81.5677 18.9171 81.9415 18.8579 82.2659 18.7822L82.3082 21.096C81.8745 21.2474 80.9507 21.4119 80.0128 21.4119C78.9091 21.4119 77.9889 21.0532 77.4282 20.497C76.7865 19.8617 76.4903 18.8217 76.4903 17.3406V6.58154H79.6179ZM34.9718 21.1684H31.7984V6.58154H34.9718V21.1684ZM26.5095 17.2551C26.5095 17.4558 26.4918 17.6665 26.4319 17.8475C26.1851 18.6078 25.3424 19.2496 24.2916 19.2496C23.4136 19.2496 22.7155 18.7855 22.7155 17.8014C22.7155 16.2973 24.4926 15.8793 26.513 15.8892V17.2551H26.5095ZM29.6793 14.6319C29.6793 12.147 28.544 9.96495 24.7042 9.96495C22.7331 9.96495 21.1676 10.4817 20.3143 10.9424L20.9384 12.9369C21.7176 12.4762 22.9623 12.0977 24.14 12.0977C26.0899 12.0944 26.4072 13.1278 26.4072 13.7894V13.9474C22.1584 13.9408 19.4751 15.3132 19.4751 18.1108C19.4751 19.819 20.8397 21.4185 23.2162 21.4185C24.6795 21.4185 25.8995 20.8754 26.6329 20.0033H26.7034C26.7034 20.0033 27.19 21.8957 29.8627 21.1717C29.7216 20.3818 29.6758 19.5425 29.6758 18.5321V14.6319H29.6793ZM3.53413 6.58154C3.86204 8.12514 4.7929 12.6078 4.7929 12.6078C5.18429 14.4509 5.54394 16.3829 5.81544 17.91H5.86481C6.12925 16.2874 6.54532 14.7504 6.98959 12.8481L8.55866 6.58154H12.0318L13.4986 13.0094C13.8829 14.7965 14.1897 16.1755 14.433 17.8376H14.4788C14.7432 16.1591 15.0888 14.7241 15.4661 12.8876L16.8765 6.58154H20.2085L16.0796 21.1684C13.4492 21.7048 12.4408 20.7175 12.0811 19.1508C11.7215 17.5809 11.0163 14.5957 11.0163 14.5957C10.6531 12.96 10.371 11.808 10.1736 10.1295H10.1242C9.84212 11.7916 9.54593 12.9567 9.10871 14.5924L7.37745 21.1717C4.69065 21.6719 3.75979 20.9314 3.245 18.9204C2.80072 17.1991 0.0292969 6.58483 0.0292969 6.58483H3.53413V6.58154ZM63.0105 17.2551C63.0105 17.4558 62.9928 17.6665 62.9329 17.8475C62.6861 18.6078 61.8434 19.2496 60.7926 19.2496C59.9147 19.2496 59.2165 18.7855 59.2165 17.8014C59.2165 16.2973 60.9936 15.8793 63.014 15.8892V17.2551H63.0105ZM66.1803 14.6319C66.1803 12.147 65.045 9.96495 61.2052 9.96495C59.2341 9.96495 57.6686 10.4817 56.8153 10.9424L57.4394 12.9369C58.2187 12.4762 59.4633 12.0977 60.641 12.0977C62.5874 12.0944 62.9082 13.1278 62.9082 13.7894V13.9474C58.6629 13.9408 55.9797 15.3132 55.9797 18.1108C55.9797 19.819 57.3477 21.4185 59.7207 21.4185C61.1805 21.4185 62.404 20.8754 63.1339 20.0033H63.2079C63.2079 20.0033 63.6945 21.8957 66.3672 21.1717C66.2262 20.3818 66.1803 19.5425 66.1803 18.5321V14.6319Z" fill="#041E42"/>
<path id="Shape_2" d="M95.2458 16.1445C95.5587 16.6772 95.5376 17.2718 95.2037 17.5433L89.4326 21.499C88.8316 21.8393 87.9318 21.4268 87.4222 20.5642C86.9091 19.6982 87.0005 18.7324 87.6015 18.3922L93.9911 15.4847C94.3918 15.3335 94.933 15.6118 95.2458 16.1445ZM102.841 16.1445C103.157 15.6118 103.695 15.3369 104.096 15.4812L110.489 18.3887C111.09 18.729 111.178 19.6947 110.668 20.5608C110.155 21.4234 109.252 21.8324 108.654 21.4956L102.883 17.5399C102.553 17.2718 102.528 16.6738 102.841 16.1445ZM99.0417 18.2891C99.6708 18.2891 100.187 18.6053 100.258 19.0211L100.88 25.8878C100.88 26.5682 100.068 27.125 99.0452 27.125C98.0259 27.125 97.2105 26.5682 97.2105 25.8878L97.8291 19.0211C97.8994 18.6053 98.4161 18.2891 99.0417 18.2891ZM102.883 10.4601L108.654 6.50098C109.252 6.16074 110.155 6.56972 110.668 7.43578C111.178 8.30185 111.09 9.26758 110.489 9.60782L104.096 12.5188C103.695 12.6631 103.154 12.3882 102.841 11.8555C102.528 11.3228 102.553 10.7282 102.883 10.4601ZM93.9911 12.5188L87.6015 9.60782C87.004 9.26758 86.9126 8.30185 87.4222 7.43578C87.9318 6.56972 88.8351 6.16074 89.4326 6.50098L95.2037 10.4601C95.5376 10.7248 95.5587 11.3228 95.2458 11.8555C94.933 12.3882 94.3918 12.6631 93.9911 12.5188ZM97.8291 8.97889L97.2105 2.11223C97.2105 1.43176 98.0224 0.875 99.0452 0.875C100.068 0.875 100.88 1.43176 100.88 2.11223L100.258 8.97889C100.187 9.3913 99.6708 9.71092 99.0417 9.71092C98.4161 9.71092 97.8994 9.3913 97.8291 8.97889ZM112.229 21.4715V21.2997H112.387C112.44 21.2997 112.475 21.3341 112.475 21.3856C112.475 21.4337 112.44 21.4715 112.387 21.4715H112.229ZM112.099 21.7843C112.099 21.8015 112.113 21.8186 112.134 21.8186H112.201C112.218 21.8186 112.236 21.8015 112.236 21.7843V21.5884H112.345L112.433 21.7946C112.44 21.8083 112.45 21.8186 112.464 21.8186H112.545C112.57 21.8186 112.587 21.7946 112.577 21.7705C112.545 21.7087 112.513 21.6434 112.482 21.5781C112.534 21.5609 112.615 21.5093 112.615 21.3856C112.615 21.255 112.506 21.1794 112.397 21.1794H112.134C112.116 21.1794 112.099 21.1966 112.099 21.2138V21.7843ZM111.814 21.499C111.814 21.2206 112.046 20.9938 112.331 20.9938C112.615 20.9938 112.847 21.2172 112.847 21.499C112.847 21.7774 112.619 22.0042 112.331 22.0042C112.042 22.0042 111.814 21.7774 111.814 21.499ZM111.691 21.499C111.691 21.8427 111.976 22.1245 112.331 22.1245C112.682 22.1245 112.97 21.8427 112.97 21.499C112.97 21.1553 112.682 20.8735 112.331 20.8735C111.976 20.8735 111.691 21.1553 111.691 21.499Z" fill="#FFC124"/>
</g>
<defs>
<clipPath id="clip0_134_695">
<rect width="112.941" height="26.25" fill="white" transform="translate(0.0292969 0.875)"/>
</clipPath>
</defs>
</svg>
